# xmcd
#
# Track frame offsets:
#	150
#	16078
#	32303
#	51823
#	66194
#	80130
#	95132
#	106996
#	121458
#	134806
#	146753
#	160842
#	174975
#	195323
#	207309
#	220716
#	245492
#	256412
#
# Disc length: 3574 seconds
#
# Revision: 0
# Processed by: cddbd v1.5.2PL0 Copyright (c) Steve Scherf et al.
# Submitted via: audiograbber 1.83.01
#
DISCID=020df412
DTITLE=Ella Fitzgerald - Masters of Music - CD 4
DYEAR=2005
DGENRE=Oldies
TTITLE0=How high the moon
TTITLE1=There's a small Hotel
TTITLE2=Mr. Paganini
TTITLE3=That's all, brother
TTITLE4=Under the spell of the Blues
TTITLE5=Love and kisses
TTITLE6=A-Tisket, a-tasket
TTITLE7=Somebody nobody loves
TTITLE8=Once too often
TTITLE9=If dreams come true
TTITLE10=Bei mir bist Du schön
TTITLE11=You showed me the way
TTITLE12=I want to be happy
TTITLE13=When my sugar walks down the street
TTITLE14=It's my turn now
TTITLE15=Flying home
TTITLE16=Robbin's nest
TTITLE17=Cryin' moon
EXTD=
EXTT0=
EXTT1=
EXTT2=
EXTT3=
EXTT4=
EXTT5=
EXTT6=
EXTT7=
EXTT8=
EXTT9=
EXTT10=
EXTT11=
EXTT12=
EXTT13=
EXTT14=
EXTT15=
EXTT16=
EXTT17=
PLAYORDER=
